<?xml version="1.0" encoding="UTF-8"?> <svg xmlns="http://www.w3.org/2000/svg" viewBox="0 0 512 512" width="512px" height="512px" class=""> <g> <g id="Outline"> <path d="M426.351,264.776,344,249.36v-.151a40,40,0,0,0,6.883-12.561l11.78-35.338A103.832,103.832,0,0,0,368,168.421V160h0a32,32,0,0,0,0-64h0a80.212,80.212,0,0,0-8.844-36.551A57.924,57.924,0,0,0,303.208,16H240A27.988,27.988,0,0,0,216.8,59.654,79.524,79.524,0,0,0,208,96h0a32,32,0,1,0,0,64v8.425a103.8,103.8,0,0,0,5.337,32.887l11.78,35.34A39.977,39.977,0,0,0,232,249.21v.146c-17.941,3.354-67.6,12.639-82.382,15.426a57.774,57.774,0,0,0-5.618,1.38V240h40a8,8,0,0,0,8-8V200a8,8,0,0,0-8-8H154.422l-21.985-14.656A8,8,0,0,0,128,176H48a8,8,0,0,0-8,8v48a8,8,0,0,0,8,8H88V360H72a8,8,0,0,0-8,8v72a8,8,0,0,0,8,8H88v40a8,8,0,0,0,8,8h88a7.968,7.968,0,0,0,2.229-.317L273.361,470.4,390.3,495.82A8.023,8.023,0,0,0,392,496h48a32.037,32.037,0,0,0,32-32v0h0V319.84A56.018,56.018,0,0,0,426.351,264.776ZM296,344V329.54l11.551-28.877L328,316v28Zm-48-28,20.449-15.337L280,329.54V344H248Zm0-40.687,11.821,11.822L248,296ZM328,296l-11.821-8.865L328,275.313Zm-29.657-13.657a7.99,7.99,0,0,0-1.764,2.689l-.007,0L288,306.459l-8.572-21.43-.007,0a7.99,7.99,0,0,0-1.764-2.689L259.112,263.8c1.3.129,2.621.2,3.952.2h49.872c1.331,0,2.648-.073,3.952-.2ZM232,312v32H216V268.625l16-2.991Zm-17.754,48H361.754l5.814,23.257-1.591.8-104.122,3.293-51.732-3.233-1.695-.847Zm203,16.318L456,382.777v16.71l-75.632-4.727ZM456,319.84v46.716l-38.685-6.448a8.025,8.025,0,0,0-4.893.737L400,367.056V352H384v23.044l-1.772.881L376,351.015V271.628l47.407,8.875A40.01,40.01,0,0,1,456,319.84Zm-96-51.208V344H344V265.637ZM384,128a16.018,16.018,0,0,1-16,16h0V112h0A16.018,16.018,0,0,1,384,128ZM347.327,72A64.233,64.233,0,0,1,352,96v6.877l-12.523,43.712a12.093,12.093,0,0,1-16.574,3.065l-1.4-.934A27.992,27.992,0,0,0,305.916,144H283.1l12.489-37.47-15.178-5.06L266.14,144.282a27.98,27.98,0,0,0-11.639,4.437,12.1,12.1,0,0,1-17.267-4.165L224,102.764V96a63.522,63.522,0,0,1,5.58-26.019A27.828,27.828,0,0,0,240,72Zm-70.8-16-14.4-24h21.34l14.4,24ZM341,56H316.53l-14.4-24h1.078A41.9,41.9,0,0,1,341,56ZM240,32h3.47l14.4,24H240a12,12,0,0,1,0-24Zm-48,96a16.019,16.019,0,0,1,16-16v32A16.019,16.019,0,0,1,192,128Zm32,40.425V153.594a28.094,28.094,0,0,0,39.376,8.437A12.05,12.05,0,0,1,270.083,160h35.833a12.049,12.049,0,0,1,6.709,2.032l1.4.936A28.1,28.1,0,0,0,352,156.57v11.851a87.856,87.856,0,0,1-4.516,27.828l-11.78,35.34A23.97,23.97,0,0,1,312.936,248H263.064A23.97,23.97,0,0,1,240.3,231.589L228.516,196.25A87.865,87.865,0,0,1,224,168.422ZM152.6,280.5c8.481-1.6,28.5-5.348,47.4-8.883v79.4l-6.232,24.928L192,375.059V352H176v15.059l-12.422-6.211A7.994,7.994,0,0,0,160,360H144V283.157A40.647,40.647,0,0,1,152.6,280.5ZM56,192h69.578l21.984,14.656A8,8,0,0,0,152,208h24v16H56Zm48,48h24V360H104Zm0,240V448h24v32Zm78.863,0H144V448h7.432l55.151,7.879,33.958,7.383ZM456,464a16.019,16.019,0,0,1-16,16H392.859L209.7,440.183c-.189-.041-.378-.076-.569-.1l-56-8A8.072,8.072,0,0,0,152,432H80V376l78.111,0,46.311,23.155a7.987,7.987,0,0,0,3.079.829l53.859,3.367v.006h.109L456,415.519Z" data-original="#000000" class="active-path" data-old_color="#000000" fill="#F7A538"></path> <path d="M252,128a12,12,0,1,0-12-12A12.013,12.013,0,0,0,252,128Z" data-original="#000000" class="active-path" data-old_color="#000000" fill="#F7A538"></path> <path d="M324,128a12,12,0,1,0-12-12A12.013,12.013,0,0,0,324,128Z" data-original="#000000" class="active-path" data-old_color="#000000" fill="#F7A538"></path> <path d="M278.891,192c13.9,0,27.091-3.229,37.14-9.09l-8.062-13.82c-7.529,4.391-18.127,6.91-29.078,6.91H264v16h14.891Z" data-original="#000000" class="active-path" data-old_color="#000000" fill="#F7A538"></path> </g> </g> </svg> 