<?xml version="1.0" encoding="UTF-8"?> <svg xmlns="http://www.w3.org/2000/svg" height="512px" viewBox="0 0 512 512" width="512px"> <g> <path d="m480 424h-8v-78.8a55.7 55.7 0 0 0 -47.507-55.347l-30.538-4.687q-.363-.091-.739-.15l-25.216-3.879v-14.551a56.069 56.069 0 0 0 32-50.586v-40a32 32 0 1 0 0-64v-24a63.445 63.445 0 0 0 -5.2-25.362 48.047 48.047 0 0 0 -47.967-46.638h-86.833a27.986 27.986 0 0 0 -16.376 50.691 64.383 64.383 0 0 0 -3.624 21.309v24a32 32 0 0 0 0 64v40a56.069 56.069 0 0 0 32 50.586v14.557l-44.295 6.857h-51.705v-24a8 8 0 0 0 -8-8h-64a8 8 0 0 0 -8 8v24h-56a24.027 24.027 0 0 0 -24 24v160a24.027 24.027 0 0 0 24 24h192a24.027 24.027 0 0 0 24-24v-32h16v-16h-16v-6.258l32-32v110.258h16v-120h32v120h16v-147.056l36.422 18.211a8 8 0 0 0 11.578-7.155v-57.719l22.065 3.386a39.783 39.783 0 0 1 33.935 39.533v78.8h-32v-48h-16v48h-40v16h40v56h16v-16h56a8 8 0 0 0 8-8v-40a8 8 0 0 0 -8-8zm-80-296a16 16 0 1 1 0 32zm-160 32a16 16 0 0 1 0-32zm144-25.886-6.311 12.621a23.868 23.868 0 0 1 -21.466 13.265h-42.465l6.087-30.431-15.69-3.138-6.713 33.569h-13.665a24.111 24.111 0 0 1 -14.836-5.134 23.812 23.812 0 0 1 -6.63-8.133l-6.311-12.621v-11.268a203.5 203.5 0 0 0 29.752-50.844h68.5a203.5 203.5 0 0 0 29.748 50.844zm-128-38.837v-7.277a48.3 48.3 0 0 1 2.722-16.032c.424.019.849.032 1.278.032h8.344a192.566 192.566 0 0 1 -12.344 23.277zm125.322-23.277a48.211 48.211 0 0 1 2.678 16v7.277a192.566 192.566 0 0 1 -12.344-23.277zm-133.322-28a12.013 12.013 0 0 1 12-12h86.833a32.057 32.057 0 0 1 30.988 24h-117.821a12.013 12.013 0 0 1 -12-12zm8 172v-51.211q1.45 1.4 3.054 2.656a40.177 40.177 0 0 0 24.723 8.555h72.446a39.785 39.785 0 0 0 27.777-11.178v51.178a40.045 40.045 0 0 1 -40 40h-48a40.045 40.045 0 0 1 -40-40zm0 83.815 18.547-2.875 8.9 26.713a24.011 24.011 0 0 0 -4.181 3.335l-16.865 16.865-6.406 3.2zm-144-27.815h48v16h-48zm128 200a8.009 8.009 0 0 1 -8 8h-192a8.009 8.009 0 0 1 -8-8v-160a8.009 8.009 0 0 1 8-8h192a8.009 8.009 0 0 1 8 8v54.259l-17.741 17.741h-14.259v14.259l-29.657 29.657a8 8 0 0 0 -2.343 5.656v22.428a8 8 0 0 0 8 8h22.428a8 8 0 0 0 5.657-2.343l27.915-27.915zm61.7-122.583-98.585 98.583h-11.115v-11.114l98.584-98.586a7.859 7.859 0 0 1 11.116 11.117zm50.3-62.717-15.589 46.77a7.97 7.97 0 0 0 -.4 2.53h-.011v24h-22.329a23.831 23.831 0 0 0 -14.506-39.8l-11.165-33.5v-15.281a56.14 56.14 0 0 0 8 .581h48a56.14 56.14 0 0 0 8-.581zm32 60.354-30.216-15.108 11.669-35.007 18.547 2.876zm88 116.946h-48v-24h48z" data-original="#000000" class="active-path" data-old_color="#000000" fill="#F7A538"></path> <path d="m346.319 203.1-4.638-15.313a99.062 99.062 0 0 1 -28.747 4.213h-16.934v16h16.934a115.037 115.037 0 0 0 33.385-4.9z" data-original="#000000" class="active-path" data-old_color="#000000" fill="#F7A538"></path> <path d="m284 112a12 12 0 1 0 12 12 12.013 12.013 0 0 0 -12-12z" data-original="#000000" class="active-path" data-old_color="#000000" fill="#F7A538"></path> <path d="m344 124a12 12 0 1 0 12-12 12.014 12.014 0 0 0 -12 12z" data-original="#000000" class="active-path" data-old_color="#000000" fill="#F7A538"></path> <path d="m368 376h16v16h-16z" data-original="#000000" class="active-path" data-old_color="#000000" fill="#F7A538"></path> <path d="m224 344a24.028 24.028 0 0 0 -24-24h-128a24 24 0 0 0 0 48h128a24.028 24.028 0 0 0 24-24zm-136 8h-16a8 8 0 0 1 0-16h16zm40 0h-24v-16h24zm40 0h-24v-16h24zm16-16h16a8 8 0 0 1 0 16h-16z" data-original="#000000" class="active-path" data-old_color="#000000" fill="#F7A538"></path> <path d="m48 384h16v16h-16z" data-original="#000000" class="active-path" data-old_color="#000000" fill="#F7A538"></path> <path d="m48 416h16v16h-16z" data-original="#000000" class="active-path" data-old_color="#000000" fill="#F7A538"></path> <path d="m80 384h16v16h-16z" data-original="#000000" class="active-path" data-old_color="#000000" fill="#F7A538"></path> <path d="m80 416h16v16h-16z" data-original="#000000" class="active-path" data-old_color="#000000" fill="#F7A538"></path> <path d="m112 384h16v16h-16z" data-original="#000000" class="active-path" data-old_color="#000000" fill="#F7A538"></path> <path d="m112 416h16v16h-16z" data-original="#000000" class="active-path" data-old_color="#000000" fill="#F7A538"></path> <path d="m144 384h16v16h-16z" data-original="#000000" class="active-path" data-old_color="#000000" fill="#F7A538"></path> <path d="m144 416h16v16h-16z" data-original="#000000" class="active-path" data-old_color="#000000" fill="#F7A538"></path> <path d="m176 384h16v16h-16z" data-original="#000000" class="active-path" data-old_color="#000000" fill="#F7A538"></path> <path d="m48 448h16v16h-16z" data-original="#000000" class="active-path" data-old_color="#000000" fill="#F7A538"></path> <path d="m80 448h16v16h-16z" data-original="#000000" class="active-path" data-old_color="#000000" fill="#F7A538"></path> <path d="m112 448h16v16h-16z" data-original="#000000" class="active-path" data-old_color="#000000" fill="#F7A538"></path> <path d="m144 448h16v16h-16z" data-original="#000000" class="active-path" data-old_color="#000000" fill="#F7A538"></path> </g> </svg> 